<?xml version="1.0" encoding="utf-8"?>
<!-- Generator: Adobe Illustrator 22.1.0, SVG Export Plug-In . SVG Version: 6.00 Build 0)  -->
<svg version="1.1" id="Layer_1" xmlns="http://www.w3.org/2000/svg" xmlns:xlink="http://www.w3.org/1999/xlink" x="0px" y="0px"
	 viewBox="0 0 1920 1080" style="enable-background:new 0 0 1920 1080;" xml:space="preserve">
<style type="text/css">
	.st0{stroke:#F5F5F5;stroke-width:4;stroke-miterlimit:10;}
</style>
<g>
	<path class="st0" d="M816,417c0,71.7,0,143.3,0,215c-3.7,3.7-7.3,7.3-11,11c-57.3,0-114.7,0-172,0c-3.7-3.7-7.3-7.3-11-11
		c0-71.7,0-143.3,0-215c4.5-9,11.8-12.1,21.6-11.2c6.1,0.6,12.3,0.3,18.5-0.1c1.9-0.1,4.3-1.5,5.4-3c3.5-5,8-7.7,14.2-7.8
		c5.2,0,10.3-0.1,15.5-0.4c1.5-0.1,3.1-0.8,4.4-1.6c4.5-2.9,9-5.9,13.5-8.9c2.7,0,5.3,0,8,0c3.1,1.5,7.2,2.3,9,4.8
		c4.6,6.4,10.9,6,17.3,6c2.3,0,4.7,0.1,7,0.1c6.2,0,10.7,2.7,14.2,7.7c1.1,1.6,3.5,3,5.4,3c8.1,0.4,16.3,0.4,24.5,0.3
		c6.2-0.1,10.3,3,13.5,7.9C814.6,414.9,815.3,415.9,816,417z M773.3,416.2c-0.9,10-1.2,10.5-10.8,10.5c-29.3,0.1-58.6,0.1-88-0.1
		c-8.9-0.1-9.1-0.6-9.7-9.4c0-0.3-0.3-0.5-0.6-1c-8.3,0-16.8-0.1-25.3,0c-3.9,0.1-6,2-6,6.3c0.1,67.8,0.1,135.6,0,203.4
		c0,4.2,1.5,6.1,5.8,6.1c15.7,0.1,31.3,0.7,47,0.7c37.6-0.1,75.3-0.5,112.9-0.6c4.7,0,6.4-2,6.4-6.6c-0.1-12.8,0.4-25.7,0.4-38.5
		c-0.1-54.5-0.3-108.9-0.4-163.4c0-5.9-1.1-7.1-6.9-7.3C790,416.1,781.8,416.2,773.3,416.2z M761.8,416c0.5-10,0-10.5-9.5-10.5
		c-5.7,0-11.3,0.1-16.9-0.4c-2.2-0.2-5-1.8-6.2-3.7c-5.8-9-14.5-9.2-20,0c-1.6,2.7-3.5,4-6.8,3.9c-6-0.1-12,0.3-18,0.5
		c-8.3,0.3-9.1,1.4-7.8,10.3C704.8,416,733.2,416,761.8,416z"/>
</g>
</svg>
