<?xml version="1.0" encoding="utf-8"?>
<!-- Generator: Adobe Illustrator 22.1.0, SVG Export Plug-In . SVG Version: 6.00 Build 0)  -->
<svg version="1.1" id="Layer_1" xmlns="http://www.w3.org/2000/svg" xmlns:xlink="http://www.w3.org/1999/xlink" x="0px" y="0px"
	 viewBox="0 0 1920 1080" style="enable-background:new 0 0 1920 1080;" xml:space="preserve">
<g>
	<path d="M701.3,433.7c0.1,18-1.9,37.8-6.6,57.3c-6.3,26.2-19.7,48.6-36.7,69c-21.9,26.2-43.9,52.4-61.4,81.9
		c-10.6,17.9-20,36.5-30.4,54.5c-23,40-77.6,54.1-117.2,30.4c-27.4-16.4-42.5-40.5-44.1-72.7c-0.4-7.9,3.5-12.9,9.7-13.1
		c6.1-0.2,10.1,4.6,10.6,12.5c1.8,31.3,23.5,56.7,53.5,62.9c27.2,5.6,58.7-6.7,72.8-35.1c14.5-29.3,30.7-57.6,50.5-83.7
		c13.5-17.8,27.4-35.2,41.7-52.4c18.7-22.4,31.6-47.3,34.8-76.6c2.8-25.2,4.8-50.4-2-75.4c-11.6-42.4-50.8-76.7-94.3-83.4
		c-53.6-8.3-105.2,20.3-126.5,68.7c-5.8,13.2-9.3,27-9.8,41.5c-0.1,2.3-0.2,4.7-0.6,7c-1.1,6-5.2,9.5-10.6,9.2
		c-5.4-0.3-9.6-4.8-9.6-10.8c0-5.3,0.2-10.7,1-16c9-57.1,40.7-96,95.3-114.9c53.9-18.7,117.1,1.8,151.4,47.7
		C693.3,369.3,702.8,399.4,701.3,433.7z"/>
	<path d="M560.9,338.9c49.3,0.1,87.9,37.7,89.4,84.5c0.2,7.5-3.5,12.5-9.6,12.7c-6.1,0.3-10.3-4.4-10.8-11.8
		c-2-32.6-24-58-55.3-63.9c-38.3-7.2-76.5,23.4-77.4,62.3c-0.3,13.6-5.3,24.9-14,34.9c-4.1,4.6-8.3,9.1-12.2,13.9
		c-1.7,2-3.1,4.4-3.9,6.9c-2.1,6-0.2,9.7,5.4,12.6c7.1,3.7,14.6,6.8,20.8,11.6c10.1,7.9,15.8,18.3,12.9,31.9
		c-1.5,7-6,11.7-11.5,15.6c-7,5-14.6,9.4-20.8,15.3c-8.8,8.5-10,19.5-5.5,30.5c4.5,11.1,13.1,17.8,25.4,19.1
		c9,0.9,13.9,5.2,13.1,11.7c-0.8,6.6-7.1,10.2-15.8,8.9c-38.8-5.6-58.1-47.3-36.1-79.2c4.7-6.8,12-11.8,18.2-17.4
		c1.7-1.5,4-2.3,6.1-3.4c9-5.1,9.5-11.2,0.8-17.2c-4.3-3-9.1-5.5-13.9-7.6c-20.9-9.1-26.9-31.4-13.1-49.5c3.8-5,8-9.8,12.4-14.3
		c7.2-7.4,10.6-15.8,11.4-26.3c2.4-34,19.9-58.2,50-73.5C538.2,341.4,550.7,339.1,560.9,338.9z"/>
</g>
</svg>
