<?xml version="1.0" encoding="utf-8"?>
<!-- Generator: Adobe Illustrator 22.1.0, SVG Export Plug-In . SVG Version: 6.00 Build 0)  -->
<svg version="1.1" id="Layer_1" xmlns="http://www.w3.org/2000/svg" xmlns:xlink="http://www.w3.org/1999/xlink" x="0px" y="0px"
	 viewBox="0 0 1920 1080" style="enable-background:new 0 0 1920 1080;" xml:space="preserve">
<g>
	<path d="M1074,552c-2.3,4.7-6.1,6.3-11.3,6.2c-10.1-0.3-20.3-0.1-30.5-0.1c-6.9,0-8.6-1.2-11-7.7c-3.3-8.7-6.5-17.3-10.2-27.3
		c-4.3,9.8-8,18.5-11.8,27.3c-1.2,2.7-2.4,5.5-3.5,8.3c-1.6,4.1-4.3,6.8-9,6.4c-4.5-0.3-6.4-3.6-7.5-7.5
		c-4.4-16.4-8.8-32.7-13.2-49.1c-0.6-2.2-1.3-4.4-2.8-6.6c-2.4,12.4-4.8,24.8-7.2,37.2c-5,26.1-10,52.2-15.1,78.4
		c-1,5.4-4.1,8.7-8.3,8.5c-5.1-0.3-7.4-3.7-8.6-8.3c-5.7-22.7-11.4-45.5-17.1-68.2c-0.2-0.8-0.5-1.5-1.1-3.4
		c-1.5,3.8-2.6,6.6-3.7,9.4c-2.5,6.4-4.2,7.6-11.2,7.6c-10.3,0-20.7-0.2-31,0.1c-5.1,0.1-8.6-1.7-11-6c0-1.7,0-3.3,0-5
		c2.5-4.4,6.5-5.6,11.3-5.5c7.8,0.2,15.7-0.1,23.5,0.1c3.1,0.1,4.8-0.8,5.8-3.9c2.9-8.5,6.3-16.8,9.3-25.3c1.5-4.3,4-7.5,8.9-7.3
		c5,0.2,7,3.8,8.1,8.1c4.6,18.5,9.3,37.1,14,55.6c0.4,1.4,0.8,2.8,1.7,5.7c2.3-11.7,4.3-21.9,6.2-32.1c5.4-28.1,10.8-56.2,16.2-84.2
		c0.9-4.6,3.1-8,8-8.1c4.9-0.1,7.4,3.1,8.6,7.6c5.8,21.7,11.6,43.3,17.4,65c0.3,0.9,0.6,1.9,1.3,4c2.8-6.5,5.3-11.9,7.6-17.4
		c2.1-4.9,4.2-9.8,6.2-14.7c1.6-3.8,3.8-6.7,8.4-6.7c4.8,0.1,6.9,3.4,8.3,7.4c4.4,12,9,24,13.2,36c1.4,4.1,3.2,6.1,8.1,5.8
		c7.1-0.6,14.3,0.2,21.5-0.2c5.3-0.3,9,1.5,11.3,6.1C1074,549.3,1074,550.7,1074,552z"/>
</g>
</svg>
