<?xml version="1.0" encoding="utf-8"?>
<!-- Generator: Adobe Illustrator 22.1.0, SVG Export Plug-In . SVG Version: 6.00 Build 0)  -->
<svg version="1.1" id="Layer_1" xmlns="http://www.w3.org/2000/svg" xmlns:xlink="http://www.w3.org/1999/xlink" x="0px" y="0px"
	 viewBox="0 0 1920 1080" style="enable-background:new 0 0 1920 1080;" xml:space="preserve">
<style type="text/css">
	.st0{fill:none;stroke:#FA1100;stroke-width:5;stroke-miterlimit:10;}
</style>
<g>
	<path class="st0" d="M1021.7,441.8c-25.8-23.3-56.4-27.8-88.7-16.1C893.5,440,863.7,487,884.5,540c18.3,46.6,47.8,86.1,79.9,126.6
		c12.9-17.4,25.4-33.4,37-50c19-27.3,37-55.3,46-87.9C1056.8,494.6,1047.5,465.1,1021.7,441.8z M1015,524.3c-11.2,0-22.2,0-33.5,0
		c0,11.4,0,22.4,0,33.7c-11.5,0-22.5,0-34,0c0-11.1,0-22.1,0-33.5c-11.3,0-22.3,0-33.8,0c0-11.6,0-22.4,0-33.9c11.1,0,22.2,0,33.7,0
		c0-11.6,0-22.5,0-33.8c11.4,0,22.4,0,33.9,0c0,2.1,0,4.2,0,6.3c0,7.8,0.2,15.6-0.1,23.4c-0.1,3.5,1.1,4.2,4.3,4.1
		c8.4-0.2,16.8-0.1,25.3-0.1c1.4,0,2.7,0,4.3,0C1015,501.9,1015,512.9,1015,524.3z"/>
</g>
</svg>
