<?xml version="1.0" encoding="utf-8"?>
<!-- Generator: Adobe Illustrator 22.1.0, SVG Export Plug-In . SVG Version: 6.00 Build 0)  -->
<svg version="1.1" id="Layer_1" xmlns="http://www.w3.org/2000/svg" xmlns:xlink="http://www.w3.org/1999/xlink" x="0px" y="0px"
	 viewBox="0 0 1920 1080" style="enable-background:new 0 0 1920 1080;" xml:space="preserve">
<g>
	<path d="M749.9,794.2c-14.2-14.1-28.6-28.4-43.3-43c35.3-35.3,70.7-70.7,105.9-106c-8.2-13.7-16.6-26.8-24.1-40.5
		c-16-29.2-28.3-59.9-32.5-93.2c-5.3-42.1,2.7-81.8,23.6-118.4C812,336.2,860.9,301,926,291.7c65.2-9.4,121.6,11,168.9,56.6
		c2.4,2.3,4.5,4.8,7.1,7.5c23.5-23.6,46.7-46.8,69.6-69.9c14.8,14.9,29.1,29.2,43.1,43.2C1059.8,484,904.7,639.2,749.9,794.2z
		 M750.1,771.9c147.5-147.6,295-295.1,441.6-441.8c-6.6-6.8-13.4-13.8-20.7-21.3c-23.1,23.2-46.5,46.7-70,70.3
		c-0.9-1-1.7-1.8-2.4-2.7c-14.1-17.6-30.3-32.8-49.7-44.4c-66.7-40.2-151.4-35.3-211.2,14.5c-55,45.7-76,105.3-63.8,175.9
		c5.3,30.7,18.6,58.6,34.3,85.2c7.9,13.3,16.6,26.1,25.1,39.4c-34.7,34.7-69.5,69.6-104.1,104.1C736.4,758.2,743.2,765,750.1,771.9z
		"/>
	<path d="M953.3,795c-18.1-12.6-77.4-69.6-87.6-84.3c3.6-3.3,7.3-6.6,11.4-10.3c2.6,2.8,5,5.4,7.6,7.9
		c21.7,21.1,43.5,42.2,65.2,63.4c2.4,2.3,4.1,2.4,6.6,0.1c48-41.2,91.8-86.3,127.5-138.7c20.7-30.4,37.7-62.7,47.2-98.6
		c7.8-29.5,8.2-58.9,0.9-88.4c-0.4-1.6-0.7-3.2-1-4.9c0-0.1,0.1-0.3,0.2-1c4.6-1.2,9.5-2.5,14.7-3.9c5.5,20,8,39.7,7.1,59.8
		c-1.4,32.5-11.2,62.7-25,91.9c-18.3,38.5-42.7,72.9-70.3,105.2c-30.1,35.3-63.1,67.8-99,97.3C957.2,792,955.3,793.5,953.3,795z"/>
	<path d="M1049.6,430.1c-48.8,48.8-97.6,97.6-146.4,146.4c-38.2-18.2-63.1-66.1-57-109.7c6.7-47.5,44.4-85.6,92.6-93.4
		C981.8,366.3,1030.3,391.2,1049.6,430.1z M900.9,556.5c0.9-0.7,1.5-1,2-1.5c41.5-41.4,82.9-82.9,124.4-124.3
		c2.2-2.2,1.8-3.6,0.2-5.8c-30.8-42.3-95.8-49.2-134.7-14.1c-24.8,22.3-34.5,50.5-30.5,83.2C865.6,520.2,879,540.8,900.9,556.5z"/>
</g>
</svg>
