<?xml version="1.0" encoding="utf-8"?>
<!-- Generator: Adobe Illustrator 22.1.0, SVG Export Plug-In . SVG Version: 6.00 Build 0)  -->
<svg version="1.1" id="Layer_1" xmlns="http://www.w3.org/2000/svg" xmlns:xlink="http://www.w3.org/1999/xlink" x="0px" y="0px"
	 viewBox="0 0 1920 1080" style="enable-background:new 0 0 1920 1080;" xml:space="preserve">
<g>
	<path d="M1206,405.8c-3.9,5.3-7.1,11.3-11.6,15.9c-111.5,111.8-223.2,223.4-334.8,335.1c-2.8,2.8-5.7,4.6-9.7,5.3
		c-44.2,7.6-88.4,15.4-133.4,23.3c1-6.2,1.9-12.1,2.9-17.9c6.7-38.7,13.3-77.5,20.2-116.2c0.5-2.6,1.9-5.4,3.8-7.3
		c112.8-113,225.7-225.9,338.7-338.7c3.9-3.9,9.3-6.4,13.9-9.6c2.6,0,5.1,0,7.7,0c7.7,2.3,13.5,7.3,19,12.9
		c23.3,23.5,46.7,46.9,70.2,70.1c5.7,5.6,10.8,11.5,13.2,19.4C1206,400.7,1206,403.2,1206,405.8z M854.7,727.3
		c87.2-87.1,174.2-174.2,261.1-261c-26.7-26.7-53.7-53.7-80-80c-87,87-174.1,174.1-261,261C801.1,673.7,828.1,700.7,854.7,727.3z
		 M1181.4,401.3c-27-27.1-54-54.1-80.7-80.8c-16,15.9-32.1,32.1-47.7,47.7c26.8,26.8,53.9,53.9,80.8,80.8
		C1149.4,433.3,1165.5,417.2,1181.4,401.3z M748,753.8c28.8-4.7,56.8-9.2,84.6-13.6c-22.7-22.6-45.1-45.1-67.6-67.5
		C759.4,698.9,753.8,725.9,748,753.8z"/>
</g>
</svg>
