<?xml version="1.0" encoding="utf-8"?>
<!-- Generator: Adobe Illustrator 22.1.0, SVG Export Plug-In . SVG Version: 6.00 Build 0)  -->
<svg version="1.1" id="Layer_1" xmlns="http://www.w3.org/2000/svg" xmlns:xlink="http://www.w3.org/1999/xlink" x="0px" y="0px"
	 viewBox="0 0 1920 1080" style="enable-background:new 0 0 1920 1080;" xml:space="preserve">
<style type="text/css">
	.st0{fill:#FFFFFF;}
</style>
<g>
	<path d="M1133.6,634.6c0.1,1.8,0.2,2.7,0.2,3.6c0,34.2,0.1,68.5-0.1,102.7c-0.1,21.4-17.8,40.2-39.1,42c-5,0.4-10,0.7-14.9,0.7
		c-117,0-234,0-351,0c-14.4,0-27-4.2-36.7-15.2c-7.7-8.7-10.9-19-10.8-30.6c0.1-120.4,0.1-240.7,0-361.1c0-11.9,3.1-22.5,11-31.3
		c8-9,18.2-14.6,30.4-14.7c58.7-0.2,117.5-0.1,176.2-0.1c1.2,0,2.5,0,4.7,0c-1.6,1.8-2.5,3.2-3.7,4.3c-9.9,9.9-19.9,19.7-29.9,29.4
		c-1.1,1-3.1,1.5-4.6,1.5c-45.7,0.3-91.5,0.5-137.2,0.7c-2.1,0-4.4,0-6.2,0.8c-3.6,1.6-4.7,4.8-4.7,8.6c0,11.4-0.2,22.7-0.2,34.1
		c0,105.1,0.1,210.2,0.2,315.3c0,4.4,0.2,8.7,0.3,13.1c0.2,6.3,2.4,8.5,8.7,8.5c57.5,0.2,115,0.6,172.5,0.6
		c63.5,0,127-0.4,190.5-0.6c6,0,8.7-2.5,8.8-8.6c0.3-21.9,0.5-43.7,0.6-65.6c0-2.7,0.8-4.6,2.7-6.5c10-9.8,19.9-19.7,29.8-29.5
		C1131.5,636.2,1132.3,635.7,1133.6,634.6z"/>
	<path d="M1050.1,274.7c28.4,0,55.3,6.3,80.6,18.9c20.3,10,38.2,23.3,53.5,40.2c24.5,26.9,39.1,58.4,45.2,94
		c2.4,14.3,2.5,28.8,1.3,43.3c-1.3,17-5.3,33.4-11.4,49.4c-6.9,18.2-16.7,34.7-29,49.8c-9.4,11.5-20,21.5-31.9,30.4
		c-7.1,5.3-15.9,5.3-22.9,0c-5.5-4.2-8.4-13.6-4.8-20.3c2.4-4.5,6.6-8.4,10.6-11.7c26.3-21.4,43.4-48.5,50.7-81.6
		c9.2-41.9,1.3-80.8-23.4-115.6c-24-33.8-57.2-53.8-98.4-59.4c-37.1-5.1-71.4,3.4-102.3,24.6c-5.1,3.5-10.2,6.5-17,4.8
		c-7.1-1.8-12-5.7-13.6-12.8c-1.7-7.8,0.5-14.6,7.3-19.4c23.6-16.7,49.7-27.5,78.1-32.2C1031.9,275.5,1041,275.4,1050.1,274.7z"/>
	<path d="M1052.1,373.9c-19.3,0.3-34.9,5.3-48.8,15.2c-11.6,8.4-28,2.1-29.1-13.2c-0.5-6.8,2.7-12.1,8.2-15.9
		c30.3-20.9,63.4-27,99-17.9c17.6,4.5,33.4,13,47,25.2c21.9,19.6,34.9,44,38.8,73c3.7,27.5-2.1,53.3-16.7,77
		c-8.2,13.3-18.5,24.7-31.5,33.5c-7.2,4.8-17.7,2.9-23.1-3.6c-5.8-7.1-5.4-17.2,1.3-23.8c5.5-5.4,11.8-10.1,16.6-16.1
		c18.6-22.8,23.3-48.8,14.8-76.7c-6.1-20.2-19-35.6-37.5-46.2C1078.3,377.1,1064.5,374.1,1052.1,373.9z"/>
	<path d="M1100.1,454.8c1,26.8-21.3,49.6-48.3,50c-28.1,0.5-49.9-22.5-50.5-49.1c-0.7-26.5,23.7-49.6,49.6-49.7
		C1076.8,406,1101.1,429.1,1100.1,454.8z"/>
	<path d="M797.3,651.1c12.6,6.2,18.5,17.1,25.2,27.3c5,7.6,9.8,15.3,15.1,23.5c-6.4,0-12.4,0.1-18.4-0.1c-0.8,0-1.6-1.4-2.2-2.3
		c-8.1-12.2-16.1-24.6-24.4-36.7c-5.1-7.5-12.2-11-21.5-10.4c-5.6,0.3-11.2,0.1-17.4,0.1c0,16.8,0,33,0,49.4c-5.4,0-10.1,0-15,0
		c0-37.4,0-74.5,0-111.7c0.6-0.2,0.9-0.5,1.3-0.5c19.6,0.2,39.2,0,58.8,0.8c15.1,0.6,25.1,8.5,28.1,20.5c4.9,20.1-5,35.5-25.4,39.3
		C800.5,650.4,799.5,650.6,797.3,651.1z M753.8,601.7c0,13,0,25.1,0,36.6c14.3,0,28.2,0.4,42.2-0.1c9.4-0.4,16.3-7.8,16.7-16.6
		c0.5-9.2-4.7-16.8-14.5-17.8C783.6,602.2,768.8,602.3,753.8,601.7z"/>
	<path d="M990.6,702.4c0-38,0-75.2,0-112.6c1.4-0.1,2.7-0.2,3.9-0.2c15.5,0.2,31,0.1,46.4,0.7c18.1,0.8,30.8,10.3,37,26.9
		c8.2,22,7.5,44.1-4.3,65c-6.5,11.7-17.4,17.8-30.3,18.7C1025.9,702.2,1008.4,702,990.6,702.4z M1005.2,687.9
		c11.4,0,22.5,0.4,33.6-0.1c11.9-0.5,20.1-6.8,24.4-17.9c5.2-13.6,5.8-27.7,2.4-41.6c-3.1-12.7-10.5-22.1-24.4-24.2
		c-3.2-0.5-6.5-0.6-9.7-0.7c-8.7-0.1-17.4,0-26.3,0C1005.2,631.7,1005.2,659.8,1005.2,687.9z"/>
	<path d="M852.5,701.7c0-37.5,0-74.7,0-112c25,0,49.8,0,74.8,0c0,4.4,0,8.6,0,13.5c-20,0-40,0-60.4,0c0,7.6,0,14.4,0,21.3
		c0,3.1,0.2,6.3,0,9.4c-0.2,2.6,0.8,3.4,3.4,3.4c15.1,0,30.2,0.3,45.4,0.3c3.5,0,4.7,1,4.4,4.4c-0.2,2.8,0,5.7,0,9.2
		c-17.5,0-34.8,0-52.7,0c0,17.2,0,33.8,0,50.6C862.1,701.7,857.4,701.7,852.5,701.7z"/>
	<path d="M949.5,589.7c5,0,9.7,0,14.6,0c0,37.4,0,74.5,0,112c-4.7,0-9.5,0-14.6,0C949.5,664.5,949.5,627.3,949.5,589.7z"/>
	<path class="st0" d="M753.8,601.7c15,0.6,29.8,0.5,44.4,2c9.8,1,15,8.6,14.5,17.8c-0.4,8.8-7.3,16.3-16.7,16.6
		c-14,0.5-27.9,0.1-42.2,0.1C753.8,626.8,753.8,614.7,753.8,601.7z"/>
	<path class="st0" d="M1005.2,687.9c0-28.1,0-56.3,0-84.5c8.9,0,17.6-0.1,26.3,0c3.2,0,6.5,0.2,9.7,0.7
		c13.9,2.2,21.3,11.5,24.4,24.2c3.4,13.9,2.8,28-2.4,41.6c-4.3,11.1-12.5,17.4-24.4,17.9C1027.7,688.3,1016.6,687.9,1005.2,687.9z"
		/>
</g>
</svg>
