<?xml version="1.0" encoding="utf-8"?>
<!-- Generator: Adobe Illustrator 22.1.0, SVG Export Plug-In . SVG Version: 6.00 Build 0)  -->
<svg version="1.1" id="Layer_1" xmlns="http://www.w3.org/2000/svg" xmlns:xlink="http://www.w3.org/1999/xlink" x="0px" y="0px"
	 viewBox="0 0 1920 1080" style="enable-background:new 0 0 1920 1080;" xml:space="preserve">
<g>
	<path d="M943.3,406.5c-0.1-2.5-0.3-4.6-0.3-6.7c0-21.7-0.1-43.3,0.1-65c0-4.7-1.5-5.9-6-5.9c-89,0.1-178,0.1-267,0
		c-5,0-6.1,1.6-6.1,6.3c0.1,128.2,0.1,256.3,0,384.5c0,5,1.3,6.6,6.4,6.6c88.7-0.1,177.3-0.1,266-0.1c6.6,0,6.6,0,6.6-6.7
		c0-34,0-68,0-102c0-2.1,0-4.3,0-6.3c8.8-0.6,10.8,1.1,10.8,9c0,36.5,0.1,73-0.1,109.5c-0.1,11.5,0.3,23.2-1.9,34.3
		c-5.5,28.8-31.2,49.2-60.5,49.2c-58.5,0-117,0.1-175.5,0c-34.3,0-61.9-27.8-61.9-62.1c0-144,0-288,0-432
		c0-35.9,27.1-63.6,63.1-63.7c57.8-0.2,115.7-0.3,173.5,0c35,0.2,61.7,26,62.7,60.8c0.8,27.8,0.5,55.6,0.6,83.5
		C953.8,404.9,952.7,405.5,943.3,406.5z M803.5,736.8c-41.8,0-83.7,0-125.5,0c-14,0-14,0-13.9,13.9c0.2,28.8,23.5,52.1,52.4,52.2
		c58.2,0.1,116.3,0.2,174.5-0.1c18.4-0.1,33.1-8.1,43.4-23.4c5.7-8.5,8.8-17.8,8.7-28.2c-0.1-14.3,0-14.3-14.6-14.3
		C886.8,736.8,845.2,736.8,803.5,736.8z M803,318.8c44.5,0,89,0,133.5,0c6.7,0,7.1-0.5,6.4-7.2c-0.1-0.8-0.2-1.7-0.4-2.5
		c-4.7-25.6-25.7-43.2-51.8-43.3c-57.8-0.1-115.6-0.1-173.5,0c-27.4,0-48.4,18.1-52.6,45.2c-1.2,7.7-1.2,7.7,6.8,7.7
		C715.3,318.8,759.1,318.8,803,318.8z"/>
	<path d="M1164.2,485.9c-5.1-4.4-9.9-8.8-15-12.8c-37.5-29.5-80-46.1-127.8-48.2c-64-2.8-119.4,18-166,62c-1.1,1-2.5,1.8-3.3,3
		c-2.5,3.6-4.6,3-7.6,0.3c-3.2-2.9-2.8-4.7,0.1-7.6c38.6-37.8,84.4-60.8,138.2-66.8c69.8-7.8,131,12.3,183.8,58.4
		C1172.3,479.2,1172.2,479.6,1164.2,485.9z"/>
	<path d="M886.8,529.6c-0.7-0.4-1.3-0.7-1.8-1.1c-6-4.9-6-5.3-0.5-10.5c30.6-29.3,66.9-46.3,109.1-50c51-4.5,96.1,10.3,135.1,43.4
		c2.1,1.8,4.4,3.5,6.6,5.3c-1.5,2-2.3,2.9-2.9,3.8c-2.7,3.9-5.1,3.7-8.7,0.5c-26.7-23.9-58-38.4-93.7-42.3
		c-48.8-5.4-92.3,8-130.1,39.4C895.3,521.6,891.1,525.6,886.8,529.6z"/>
	<path d="M921.5,562.6c45-51.1,130.7-49.7,173.4-3.4c-2,2.1-4,4.2-6.3,6.7c-1.8-1.5-3.3-2.7-4.8-3.9
		c-45.3-37.5-106.1-36.5-150.2,2.4C927,570.1,927,570.1,921.5,562.6z"/>
	<path d="M964.4,603.7c19-25.2,68.6-26.3,89.6-1.7c-2,2.2-4.1,4.4-6.4,7c-2-1.5-3.7-2.8-5.4-4.1c-19.7-14.7-46.5-14.3-65.4,0.9
		C970.1,611.1,970.1,611.1,964.4,603.7z"/>
	<path d="M804,741.9c15.8,0,28.8,12.9,28.8,28.6c0,15.6-13.1,28.6-28.9,28.5c-15.9-0.1-28.2-12.6-28.1-28.8
		C775.8,754.3,788.2,741.9,804,741.9z M786,770.4c0,10.2,7.8,18.2,17.9,18.3c10.1,0.1,18.3-8.2,18.2-18.5
		c-0.1-10.1-8.2-18.1-18.2-18.1C794,752.2,786,760.4,786,770.4z"/>
	<path d="M804.1,278.2c7.8,0,15.6-0.1,23.4,0c9.1,0.1,14.5,5.1,14.6,13.4c0.1,8.6-5.2,14-14.5,14.1c-15.8,0.2-31.6,0.2-47.4,0
		c-9.1-0.1-14.6-5.7-14.4-14.3c0.2-8.2,5.6-13.2,14.8-13.3C788.5,278.1,796.3,278.2,804.1,278.2z M804,295.1
		c7.8,0,15.6,0.2,23.4-0.1c1.5-0.1,2.9-1.8,4.4-2.8c-1.5-1.1-3-3.2-4.5-3.2c-15.4-0.2-30.9-0.2-46.3,0c-1.6,0-3.1,2-4.7,3
		c1.6,1,3.1,2.9,4.8,3C788.7,295.3,796.3,295.1,804,295.1z"/>
</g>
</svg>
