<?xml version="1.0" encoding="utf-8"?>
<!-- Generator: Adobe Illustrator 22.1.0, SVG Export Plug-In . SVG Version: 6.00 Build 0)  -->
<svg version="1.1" id="Layer_1" xmlns="http://www.w3.org/2000/svg" xmlns:xlink="http://www.w3.org/1999/xlink" x="0px" y="0px"
	 viewBox="0 0 1920 1080" style="enable-background:new 0 0 1920 1080;" xml:space="preserve">
<g>
	<path d="M813.7,940.7c-6.4,0-12.8-0.3-19.1,0.1c-17,1-30.1-15.3-24-33.6c19.9-59.2,39.4-118.5,59.1-177.7
		c30-90.2,60-180.3,90-270.5c34.7-104.1,69.3-208.2,104-312.3c4.8-14.4,17.2-23.7,33.1-24.1c13-0.3,26-0.4,39,0
		c17.9,0.5,28.4,16.1,22.7,33.4c-19.4,58.5-38.9,116.9-58.3,175.4C1002.8,504,945.3,676.6,887.9,849.2c-7.5,22.5-15,45.1-22.5,67.6
		c-5,15.1-17.1,23.8-33,23.9C826.2,940.7,819.9,940.7,813.7,940.7z"/>
	<path d="M1433.1,531.5c-7.6-9.3-15.1-18.4-22.6-27.6c-41.7-50.6-83.3-101.3-125-151.9c-7.6-9.3-15-18.7-23-27.7
		c-6.1-6.9-7.4-14.5-5.3-23c1.8-7.2,5.4-13.3,11.3-18.1c7.2-5.8,14.2-11.8,21.2-17.8c12.5-10.7,30.5-9.2,41.1,3.5
		c43.2,51.8,86.4,103.5,129.6,155.3c25.3,30.3,50.7,60.5,75.9,90.8c7.3,8.7,7.1,24.4-0.1,33.1c-56.4,67.5-112.7,135-169.1,202.5
		c-13.1,15.7-26.2,31.5-39.3,47.2c-8.7,10.5-24.5,11.6-34.9,2.6c-9.7-8.3-19.5-16.4-29.3-24.5c-10.2-8.4-11.9-24-3.5-34.3
		c45.3-55,90.7-110.1,136-165.1c11.5-14,23-28,34.5-42C1431.5,533.7,1432.2,532.7,1433.1,531.5z"/>
	<path d="M595.3,258.5c7.5,0.2,13.4,2.4,18.3,7.5c7.5,7.7,15.3,15.1,23.1,22.5c8.9,8.5,10.2,23.2,2.4,32.7
		c-30.1,36.7-60.3,73.3-90.5,109.9c-26.1,31.7-52.2,63.4-78.3,95.2c-4.4,5.4-4.3,5.4,0.1,10.7c42.5,50.4,85,100.9,127.5,151.3
		c14,16.6,28,33.2,42.1,49.8c10,11.7,8.6,29.9-3.3,40.1c-8,6.8-16,13.6-24.1,20.3c-12.1,10.1-29.7,8.4-39.9-3.8
		c-28.7-34.3-57.3-68.6-86-103c-40-47.9-80.1-95.9-120.1-143.9c-7-8.4-7.1-23.9,0-32.4c13.1-15.9,26.4-31.7,39.6-47.5
		c27.2-32.6,54.5-65.2,81.7-97.8c28.3-33.8,56.5-67.7,84.8-101.5C578.8,261.6,586.8,258.9,595.3,258.5z"/>
</g>
</svg>
