<?xml version="1.0" encoding="utf-8"?>
<!-- Generator: Adobe Illustrator 22.1.0, SVG Export Plug-In . SVG Version: 6.00 Build 0)  -->
<svg version="1.1" id="Layer_1" xmlns="http://www.w3.org/2000/svg" xmlns:xlink="http://www.w3.org/1999/xlink" x="0px" y="0px"
	 viewBox="0 0 100 100" style="enable-background:new 0 0 100 100;" xml:space="preserve">
<style type="text/css">
	.st0{fill:none;}
</style>
<g>
	<path class="st0" d="M70,14.1c-8.8-7.9-19.2-9.5-30.2-5.5c-13.5,4.9-23.6,20.9-16.5,38.9c6.2,15.9,16.3,29.3,27.2,43.1
		c4.4-5.9,8.7-11.4,12.6-17c6.5-9.3,12.6-18.8,15.7-29.9C82,32.1,78.8,22,70,14.1z M67.7,42.2c-3.8,0-7.5,0-11.4,0
		c0,3.9,0,7.6,0,11.5c-3.9,0-7.7,0-11.6,0c0-3.8,0-7.5,0-11.4c-3.9,0-7.6,0-11.5,0c0-3.9,0-7.6,0-11.5c3.8,0,7.6,0,11.5,0
		c0-3.9,0-7.7,0-11.5c3.9,0,7.6,0,11.5,0c0,0.7,0,1.4,0,2.1c0,2.7,0.1,5.3,0,8c0,1.2,0.4,1.4,1.5,1.4c2.9-0.1,5.7,0,8.6,0
		c0.5,0,0.9,0,1.4,0C67.7,34.6,67.7,38.3,67.7,42.2z"/>
</g>
</svg>
